<svg width="64" height="60" viewBox="0 0 64 60" fill="none" xmlns="http://www.w3.org/2000/svg">
<rect x="2" y="2.09839" width="60" height="55" rx="10" fill="white"/>
<rect x="1" y="1.09839" width="62" height="57" rx="11" stroke="white" stroke-opacity="0.5" stroke-width="2"/>
<rect x="1" y="1.09839" width="62" height="57" rx="11" stroke="url(#paint0_linear_68_7)" stroke-opacity="0.8" stroke-width="2"/>
<path d="M42.7143 43.8197V40.8616C41.7799 40.8616 40.8712 40.5455 40.1264 39.9614C39.3817 39.3772 38.8417 38.5571 38.5887 37.6259C38.3357 36.6947 38.3835 35.7034 38.725 34.803C39.0664 33.9025 39.6827 33.1423 40.48 32.638C41.1551 32.211 41.9287 31.9873 42.7143 31.9873C42.8565 31.9873 42.9991 31.9946 43.1417 32.0094C44.0713 32.1059 44.9451 32.5142 45.6299 33.1723C46.3147 33.8304 46.773 34.7022 46.935 35.6549C47.0971 36.6076 46.954 37.589 46.5275 38.4497M21.2857 43.8197V40.8616C20.3514 40.8616 19.4426 40.5455 18.6979 39.9614C17.9531 39.3772 17.4131 38.5571 17.1601 37.6259C16.9071 36.6947 16.955 35.7034 17.2964 34.803C17.6378 33.9025 18.2541 33.1423 19.0514 32.638C19.7265 32.211 20.5001 31.9873 21.2857 31.9873C21.428 31.9873 21.5706 31.9946 21.7131 32.0094C22.6428 32.1059 23.5165 32.5142 24.2013 33.1723C24.8861 33.8304 25.3444 34.7022 25.5065 35.6549C25.6685 36.6076 25.5254 37.589 25.099 38.4497M31.8399 17.1967V20.1549C30.9056 20.1549 29.9968 20.471 29.2521 21.0551C28.5073 21.6392 27.9673 22.4593 27.7143 23.3905C27.4613 24.3217 27.5091 25.313 27.8506 26.2135C28.192 27.1139 28.8083 27.8742 29.6056 28.3785C30.2807 28.8055 31.0543 29.0292 31.8399 29.0292C31.9821 29.0292 32.1248 29.0218 32.2673 29.0071C33.197 28.9106 34.0707 28.5022 34.7555 27.8441C35.4403 27.186 35.8986 26.3142 36.0607 25.3616C36.2227 24.4089 36.0796 23.4274 35.6531 22.5667M42.7143 27.5501V17.1967M21.2857 27.5501V17.1967M31.8399 33.4663L31.8399 43.8197" stroke="white" stroke-opacity="0.5" stroke-width="3.5" stroke-linecap="round" stroke-linejoin="round"/>
<path d="M42.7143 43.8197V40.8616C41.7799 40.8616 40.8712 40.5455 40.1264 39.9614C39.3817 39.3772 38.8417 38.5571 38.5887 37.6259C38.3357 36.6947 38.3835 35.7034 38.725 34.803C39.0664 33.9025 39.6827 33.1423 40.48 32.638C41.1551 32.211 41.9287 31.9873 42.7143 31.9873C42.8565 31.9873 42.9991 31.9946 43.1417 32.0094C44.0713 32.1059 44.9451 32.5142 45.6299 33.1723C46.3147 33.8304 46.773 34.7022 46.935 35.6549C47.0971 36.6076 46.954 37.589 46.5275 38.4497M21.2857 43.8197V40.8616C20.3514 40.8616 19.4426 40.5455 18.6979 39.9614C17.9531 39.3772 17.4131 38.5571 17.1601 37.6259C16.9071 36.6947 16.955 35.7034 17.2964 34.803C17.6378 33.9025 18.2541 33.1423 19.0514 32.638C19.7265 32.211 20.5001 31.9873 21.2857 31.9873C21.428 31.9873 21.5706 31.9946 21.7131 32.0094C22.6428 32.1059 23.5165 32.5142 24.2013 33.1723C24.8861 33.8304 25.3444 34.7022 25.5065 35.6549C25.6685 36.6076 25.5254 37.589 25.099 38.4497M31.8399 17.1967V20.1549C30.9056 20.1549 29.9968 20.471 29.2521 21.0551C28.5073 21.6392 27.9673 22.4593 27.7143 23.3905C27.4613 24.3217 27.5091 25.313 27.8506 26.2135C28.192 27.1139 28.8083 27.8742 29.6056 28.3785C30.2807 28.8055 31.0543 29.0292 31.8399 29.0292C31.9821 29.0292 32.1248 29.0218 32.2673 29.0071C33.197 28.9106 34.0707 28.5022 34.7555 27.8441C35.4403 27.186 35.8986 26.3142 36.0607 25.3616C36.2227 24.4089 36.0796 23.4274 35.6531 22.5667M42.7143 27.5501V17.1967M21.2857 27.5501V17.1967M31.8399 33.4663L31.8399 43.8197" stroke="url(#paint1_linear_68_7)" stroke-opacity="0.8" stroke-width="3.5" stroke-linecap="round" stroke-linejoin="round"/>
<defs>
<linearGradient id="paint0_linear_68_7" x1="32" y1="2.09839" x2="32" y2="57.0984" gradientUnits="userSpaceOnUse">
<stop stop-color="#7F9BFD"/>
<stop offset="1" stop-color="#72BBFE"/>
</linearGradient>
<linearGradient id="paint1_linear_68_7" x1="32" y1="17.1967" x2="32" y2="43.8197" gradientUnits="userSpaceOnUse">
<stop stop-color="#7F9BFD"/>
<stop offset="1" stop-color="#72BBFE"/>
</linearGradient>
</defs>
</svg>
