<svg width="28" height="36" viewBox="0 0 28 36" fill="none" xmlns="http://www.w3.org/2000/svg">
<path d="M27.12 23.52C27.12 25.504 26.016 27.456 23.808 29.376C21.632 31.296 18.976 32.832 15.84 33.984C12.736 35.104 9.776 35.664 6.96 35.664C5.744 35.664 4.32 34.928 2.688 33.456C1.056 31.952 0.24 30.72 0.24 29.76C0.24 29.216 0.352 28.784 0.576 28.464C0.832 28.144 1.12 27.984 1.44 27.984C1.76 27.984 2.464 28.256 3.552 28.8C4.672 29.312 5.504 29.568 6.048 29.568C6.624 29.568 7.184 29.52 7.728 29.424C6.928 29.104 6.128 28.544 5.328 27.744C4.528 26.944 4.128 26.176 4.128 25.44C4.128 25.12 4.656 22.8 5.712 18.48C6.768 14.128 7.328 10.416 7.392 7.344C6.816 6.8 6.288 6.144 5.808 5.376C5.36 4.576 5.136 3.984 5.136 3.6C5.136 2.704 5.84 1.984 7.248 1.44C8.656 0.895998 10.416 0.623998 12.528 0.623998C17.008 0.623998 20.592 1.216 23.28 2.4C26 3.584 27.36 5.472 27.36 8.064C27.36 9.696 26.672 11.36 25.296 13.056C23.92 14.752 22.112 16.304 19.872 17.712L20.352 17.856C22.272 18.368 23.872 19.136 25.152 20.16C26.464 21.152 27.12 22.272 27.12 23.52ZM18.624 6.768C17.632 6.768 15.296 7.12 11.616 7.824C12.768 9.104 13.344 10.176 13.344 11.04C13.344 11.872 13.072 13.424 12.528 15.696C13.04 15.312 13.952 14.752 15.264 14.016C16.576 13.28 17.392 12.8 17.712 12.576C18.064 12.32 18.528 11.952 19.104 11.472C20.192 10.608 20.736 9.616 20.736 8.496C20.736 7.344 20.032 6.768 18.624 6.768ZM21.072 23.328C21.072 22.688 20.144 22.144 18.288 21.696C16.464 21.216 14.944 20.976 13.728 20.976C13.056 20.976 12.336 20.48 11.568 19.488C10.128 25.408 9.264 28.656 8.976 29.232C11.664 28.656 14.352 27.776 17.04 26.592C19.728 25.408 21.072 24.32 21.072 23.328Z" fill="url(#paint0_linear_9_481)"/>
<defs>
<linearGradient id="paint0_linear_9_481" x1="15" y1="-15" x2="15" y2="62" gradientUnits="userSpaceOnUse">
<stop stop-color="#69D1FF"/>
<stop offset="1" stop-color="#8D77FB"/>
</linearGradient>
</defs>
</svg>
