<svg width="34" height="31" viewBox="0 0 34 31" fill="none" xmlns="http://www.w3.org/2000/svg">
<path d="M27.7143 28.8197V25.8616C26.7799 25.8616 25.8712 25.5455 25.1264 24.9614C24.3817 24.3772 23.8417 23.5571 23.5887 22.6259C23.3357 21.6947 23.3835 20.7034 23.725 19.803C24.0664 18.9025 24.6827 18.1423 25.48 17.638C26.1551 17.211 26.9287 16.9873 27.7143 16.9873C27.8565 16.9873 27.9991 16.9946 28.1417 17.0094C29.0713 17.1059 29.9451 17.5142 30.6299 18.1723C31.3147 18.8304 31.773 19.7022 31.935 20.6549C32.0971 21.6076 31.954 22.589 31.5275 23.4497M6.28571 28.8197V25.8616C5.35138 25.8616 4.44265 25.5455 3.69788 24.9614C2.95311 24.3772 2.41311 23.5571 2.16011 22.6259C1.90711 21.6947 1.95497 20.7034 2.2964 19.803C2.63784 18.9025 3.25413 18.1423 4.05145 17.638C4.72654 17.211 5.50009 16.9873 6.28571 16.9873C6.42795 16.9873 6.57058 16.9946 6.7131 17.0094C7.64278 17.1059 8.51653 17.5142 9.20133 18.1723C9.88613 18.8304 10.3444 19.7022 10.5065 20.6549C10.6685 21.6076 10.5254 22.589 10.099 23.4497M16.8399 2.19675V5.15485C15.9056 5.15485 14.9968 5.47098 14.2521 6.05509C13.5073 6.6392 12.9673 7.45931 12.7143 8.39052C12.4613 9.32173 12.5091 10.313 12.8506 11.2135C13.192 12.1139 13.8083 12.8742 14.6056 13.3785C15.2807 13.8055 16.0543 14.0292 16.8399 14.0292C16.9821 14.0292 17.1248 14.0218 17.2673 14.0071C18.197 13.9106 19.0707 13.5022 19.7555 12.8441C20.4403 12.186 20.8986 11.3142 21.0607 10.3616C21.2227 9.40887 21.0796 8.42745 20.6531 7.56674M27.7143 12.5501V2.19675M6.28571 12.5501V2.19675M16.8399 18.4663L16.8399 28.8197" stroke="white" stroke-opacity="0.5" stroke-width="3.5" stroke-linecap="round" stroke-linejoin="round"/>
<path d="M27.7143 28.8197V25.8616C26.7799 25.8616 25.8712 25.5455 25.1264 24.9614C24.3817 24.3772 23.8417 23.5571 23.5887 22.6259C23.3357 21.6947 23.3835 20.7034 23.725 19.803C24.0664 18.9025 24.6827 18.1423 25.48 17.638C26.1551 17.211 26.9287 16.9873 27.7143 16.9873C27.8565 16.9873 27.9991 16.9946 28.1417 17.0094C29.0713 17.1059 29.9451 17.5142 30.6299 18.1723C31.3147 18.8304 31.773 19.7022 31.935 20.6549C32.0971 21.6076 31.954 22.589 31.5275 23.4497M6.28571 28.8197V25.8616C5.35138 25.8616 4.44265 25.5455 3.69788 24.9614C2.95311 24.3772 2.41311 23.5571 2.16011 22.6259C1.90711 21.6947 1.95497 20.7034 2.2964 19.803C2.63784 18.9025 3.25413 18.1423 4.05145 17.638C4.72654 17.211 5.50009 16.9873 6.28571 16.9873C6.42795 16.9873 6.57058 16.9946 6.7131 17.0094C7.64278 17.1059 8.51653 17.5142 9.20133 18.1723C9.88613 18.8304 10.3444 19.7022 10.5065 20.6549C10.6685 21.6076 10.5254 22.589 10.099 23.4497M16.8399 2.19675V5.15485C15.9056 5.15485 14.9968 5.47098 14.2521 6.05509C13.5073 6.6392 12.9673 7.45931 12.7143 8.39052C12.4613 9.32173 12.5091 10.313 12.8506 11.2135C13.192 12.1139 13.8083 12.8742 14.6056 13.3785C15.2807 13.8055 16.0543 14.0292 16.8399 14.0292C16.9821 14.0292 17.1248 14.0218 17.2673 14.0071C18.197 13.9106 19.0707 13.5022 19.7555 12.8441C20.4403 12.186 20.8986 11.3142 21.0607 10.3616C21.2227 9.40887 21.0796 8.42745 20.6531 7.56674M27.7143 12.5501V2.19675M6.28571 12.5501V2.19675M16.8399 18.4663L16.8399 28.8197" stroke="url(#paint0_linear_4_381)" stroke-opacity="0.8" stroke-width="3.5" stroke-linecap="round" stroke-linejoin="round"/>
<defs>
<linearGradient id="paint0_linear_4_381" x1="17" y1="2.19675" x2="17" y2="28.8197" gradientUnits="userSpaceOnUse">
<stop stop-color="#7F9BFD"/>
<stop offset="1" stop-color="#72BBFE"/>
</linearGradient>
</defs>
</svg>
