<svg width="27" height="30" viewBox="0 0 27 30" fill="none" xmlns="http://www.w3.org/2000/svg">
<path d="M16.0556 13.5V21.1667M10.9444 13.5V21.1667M2 7.11111H18.6111M18.6111 7.11111H25M18.6111 7.11111V4.55556C18.6111 3.87778 18.3419 3.22776 17.8626 2.7485C17.3833 2.26925 16.7333 2 16.0556 2H10.9444C10.2667 2 9.61665 2.26925 9.13739 2.7485C8.97809 2.90781 8.84198 3.08599 8.73126 3.27778M22.4444 10.9444V25C22.4444 25.6778 22.1752 26.3278 21.6959 26.8071C21.2167 27.2863 20.5667 27.5556 19.8889 27.5556H7.11111C6.43334 27.5556 5.78332 27.2863 5.30406 26.8071C4.8248 26.3278 4.55556 25.6778 4.55556 25V10.9444" stroke="#343A3F" stroke-width="3" stroke-linecap="round" stroke-linejoin="round"/>
</svg>
