<svg width="60" height="77" viewBox="0 0 60 77" fill="none" xmlns="http://www.w3.org/2000/svg">
<rect y="6" width="60" height="55" rx="10" fill="white"/>
<path d="M42.12 38.52C42.12 40.504 41.016 42.456 38.808 44.376C36.632 46.296 33.976 47.832 30.84 48.984C27.736 50.104 24.776 50.664 21.96 50.664C20.744 50.664 19.32 49.928 17.688 48.456C16.056 46.952 15.24 45.72 15.24 44.76C15.24 44.216 15.352 43.784 15.576 43.464C15.832 43.144 16.12 42.984 16.44 42.984C16.76 42.984 17.464 43.256 18.552 43.8C19.672 44.312 20.504 44.568 21.048 44.568C21.624 44.568 22.184 44.52 22.728 44.424C21.928 44.104 21.128 43.544 20.328 42.744C19.528 41.944 19.128 41.176 19.128 40.44C19.128 40.12 19.656 37.8 20.712 33.48C21.768 29.128 22.328 25.416 22.392 22.344C21.816 21.8 21.288 21.144 20.808 20.376C20.36 19.576 20.136 18.984 20.136 18.6C20.136 17.704 20.84 16.984 22.248 16.44C23.656 15.896 25.416 15.624 27.528 15.624C32.008 15.624 35.592 16.216 38.28 17.4C41 18.584 42.36 20.472 42.36 23.064C42.36 24.696 41.672 26.36 40.296 28.056C38.92 29.752 37.112 31.304 34.872 32.712L35.352 32.856C37.272 33.368 38.872 34.136 40.152 35.16C41.464 36.152 42.12 37.272 42.12 38.52ZM33.624 21.768C32.632 21.768 30.296 22.12 26.616 22.824C27.768 24.104 28.344 25.176 28.344 26.04C28.344 26.872 28.072 28.424 27.528 30.696C28.04 30.312 28.952 29.752 30.264 29.016C31.576 28.28 32.392 27.8 32.712 27.576C33.064 27.32 33.528 26.952 34.104 26.472C35.192 25.608 35.736 24.616 35.736 23.496C35.736 22.344 35.032 21.768 33.624 21.768ZM36.072 38.328C36.072 37.688 35.144 37.144 33.288 36.696C31.464 36.216 29.944 35.976 28.728 35.976C28.056 35.976 27.336 35.48 26.568 34.488C25.128 40.408 24.264 43.656 23.976 44.232C26.664 43.656 29.352 42.776 32.04 41.592C34.728 40.408 36.072 39.32 36.072 38.328Z" fill="url(#paint0_linear_131_2)"/>
<defs>
<linearGradient id="paint0_linear_131_2" x1="30" y1="0" x2="30" y2="77" gradientUnits="userSpaceOnUse">
<stop stop-color="#69D1FF"/>
<stop offset="1" stop-color="#8D77FB"/>
</linearGradient>
</defs>
</svg>
